<svg xmlns="http://www.w3.org/2000/svg" viewBox="0 0 56.93 56.93"><path d="M48.654 40.217l-11.771 5.697-4.547-9.395 11.771-5.697 4.547 9.395zM45.801 16.3l9.722 20.089-5.885 2.848-9.723-20.088 5.886-2.849zm-5.183 31.212l16.312-7.604-.381-1.603-17.685 8.205a4.91 4.91 0 0 0-2.675-.11c-.16.037-.317.084-.471.135L23.575 23.577c1.507-1.646.112-5.235-2.842-4.859-.291.037-.396.068-.603.087-2.797-.194-5.6-1.117-8.139-2.459-.016-.294-.028-.587-.045-.881-.148-2.42-1.555-4.553-4.191-4.704-2.205-.126-4.852 1.764-4.704 4.191.35 5.73.346 7.134.328 12.627l-.057-.002c.035.73.069 1.94.107 2.672.055 1.136.455 2.048 1.053 2.735.005.008.006.02.013.026.707 1.087.65 2.241 1.215 3.403-1.043 4.955-4.331 9.906-5.605 14.812-.934 3.603 4.624 5.127 5.558 1.532 1.284-4.941 5.213-9.938 6.266-14.934.054-.254.073-.498.069-.729 3.46 3.575 5.784 9.387 6.221 14.463.316 3.678 6.082 3.706 5.764 0-.729-8.468-5.046-16.685-11.671-21.777l-.062-1.278.022.002c.01-3.447.018-2.288-.05-5.734a26.473 26.473 0 0 0 7.413 1.687l-.004.07c.894-.007 1.467-.071 2.35-.183.164-.021.307-.063.451-.104l11.761 23.151a4.96 4.96 0 0 0-1.686 4.979 4.97 4.97 0 0 0 5.977 3.682 4.97 4.97 0 0 0 3.68-5.977 4.924 4.924 0 0 0-1.546-2.563zm-2.896 5.342a1.677 1.677 0 0 1-2.016-1.24 1.678 1.678 0 0 1 1.24-2.017 1.678 1.678 0 0 1 2.016 1.241 1.675 1.675 0 0 1-1.24 2.016zm1.208-32.727l4.548 9.395-11.771 5.697-4.548-9.394 11.771-5.698zM7.667.745a4.33 4.33 0 1 1 0 8.662 4.33 4.33 0 0 1 0-8.662z" fill="#fff"/></svg>