<svg class="svgicon" id="svg43" xmlns="http://www.w3.org/2000/svg" viewBox="0 0 128 128"><rect x="1.92" y="1.92" style="stroke-alignment:inside" rx="62.08" ry="62.08" stroke="#fff" fill="none" stroke-width="3.84"/><g transform="matrix(.5 0 0 .5 32 32)"><style>#svg43 path, #svg43 circle, #svg43 polygon, #svg43 rect { fill: rgb(255, 255, 255) } #svg43 defs &gt; path { fill: none } #svg43 path[fill=&quot;none&quot;], #svg43 circle[fill=&quot;none&quot;], #svg43 polygon[fill=&quot;none&quot;], #svg43 rect[fill=&quot;none&quot;] { fill: none }</style><style>#svg43 .st0{fill:#fff}</style><path class="st0" d="M111.146 20.943H97.42a3 3 0 0 0-2.963 2.527L92.52 35.607l-7.867-7.61a1.499 1.499 0 0 0-2.17.089l-2.852 3.25H55.312a1.5 1.5 0 0 0-1.5 1.5v9.904H40.875L35.48 19.59a1.503 1.503 0 0 0-1.902-1.093l-12.996 4.012a1.5 1.5 0 0 0-1.008 1.819l4.904 18.411h-7.625c-.916 0-1.781.419-2.352 1.136a3.003 3.003 0 0 0-.57 2.548L22.63 83.63a3 3 0 0 0 2.922 2.317h58.934l-.738 4.623H26.83c-.297 0-.578.057-.85.137-4.506.74-7.957 4.65-7.957 9.362 0 5.237 4.262 9.498 9.498 9.498 5.238 0 9.498-4.261 9.498-9.498a9.428 9.428 0 0 0-.676-3.499h40.031a9.428 9.428 0 0 0-.676 3.499c0 5.237 4.26 9.498 9.496 9.498 5.238 0 9.5-4.261 9.5-9.498 0-3.629-2.049-6.787-5.047-8.386l10.333-64.74h11.166a3.001 3.001 0 0 0 0-6zM78.301 52.459v24.172a1.5 1.5 0 0 1-3 0V52.459a1.5 1.5 0 0 1 3 0zm-14.326 0v24.172a1.5 1.5 0 0 1-3 0V52.459a1.5 1.5 0 0 1 3 0zm-14.325 0v24.172a1.5 1.5 0 0 1-3 0V52.459a1.5 1.5 0 0 1 3 0zm-14.326 0v24.172a1.5 1.5 0 0 1-3 0V52.459a1.5 1.5 0 0 1 3 0zm48.375-21.211l8.244 7.976-.561 3.517H73.615l10.084-11.493zm-26.887 3.087h20.186l-7.373 8.404H56.812v-8.404zm-33.968-9.384l10.08-3.111 4.871 20.9H27.582l-4.738-17.789z"/></g></svg>