<svg xmlns="http://www.w3.org/2000/svg" viewBox="0 0 512 512"><g fill="#fff"><path d="M458.671 214.24v-11.571c0-17.645-14.354-32-32-32H320v-53.337c0-5.891-4.775-10.667-10.667-10.667h-32.001V74.67c0-5.891-4.776-10.667-10.667-10.667H121.759L103.545 45.79c-4.164-4.165-10.918-4.165-15.084 0l-60.878 60.875H10.667C4.776 106.666 0 111.441 0 117.332V416c0 5.89 4.776 10.667 10.667 10.667h43.739A53.103 53.103 0 0 0 64.028 448H42.666C36.775 448 32 452.777 32 458.667s4.775 10.667 10.667 10.667h63.997c.027 0 .052-.004.079-.004 25.72-.037 47.231-18.373 52.181-42.662H353.08a53.104 53.104 0 0 0 9.623 21.333H341.34c-5.89 0-10.667 4.776-10.667 10.667s4.776 10.667 10.667 10.667h63.997c.027 0 .053-.004.08-.004 25.72-.037 47.231-18.373 52.181-42.662h43.735c5.891 0 10.667-4.776 10.667-10.667v-138.67c0-31.653-23.104-57.996-53.329-63.092zM255.999 85.337v21.329h-91.576l-21.33-21.329h112.906zM96.003 68.417l13.788 13.787.016.016 24.446 24.446H57.754l38.249-38.249zm10.663 379.581c-17.646 0-32.001-14.354-32.001-31.998 0-17.646 14.355-32.002 32.001-32.002 17.644 0 31.998 14.356 31.998 32.002-.001 17.644-14.355 31.998-31.998 31.998zm192-266.662v181.332h-72.543c-5.891 0-10.667 4.776-10.667 10.667s4.775 10.667 10.667 10.667h72.543v21.333H158.924c-4.955-24.316-26.503-42.668-52.258-42.668-25.755 0-47.306 18.353-52.261 42.668H21.333V234.668h42.665c5.89 0 10.667-4.775 10.667-10.667 0-5.891-4.776-10.667-10.667-10.667H21.333v-21.332H149.33c5.891 0 10.667-4.775 10.667-10.667 0-5.891-4.775-10.667-10.667-10.667H21.333v-42.671h277.333v53.339zm54.414 223.998H320v-21.333h42.701a53.08 53.08 0 0 0-9.621 21.333zm84.257 10.701c-.019 17.629-14.366 31.963-31.998 31.963-17.645 0-32.001-14.354-32.001-31.998 0-17.619 14.311-31.955 31.919-32h.08l.028-.001c17.621.014 31.953 14.346 31.972 31.967l-.001.034.001.035zm53.33-10.701h-33.069c-4.956-24.316-26.504-42.668-52.259-42.668l-.082.002h-85.258V192.003h106.672c5.882 0 10.667 4.785 10.667 10.667v10.666h-74.666c-5.89 0-10.667 4.775-10.667 10.667v95.998c0 5.891 4.776 10.667 10.667 10.667h127.995v74.666zm-95.994-170.666v74.665h-21.334v-74.665h21.334zm95.994 74.665h-74.661v-74.665h31.999c23.524 0 42.662 19.138 42.662 42.663v32.002z"/><path d="M184.397 384.001h6.658c5.89 0 10.667-4.776 10.667-10.667s-4.776-10.667-10.667-10.667h-6.658c-5.891 0-10.667 4.776-10.667 10.667s4.777 10.667 10.667 10.667zm0-191.998h6.658c5.89 0 10.667-4.775 10.667-10.667 0-5.891-4.776-10.667-10.667-10.667h-6.658c-5.891 0-10.667 4.775-10.667 10.667.001 5.891 4.777 10.667 10.667 10.667z"/></g></svg>