<svg xmlns="http://www.w3.org/2000/svg" viewBox="0 0 79.536 79.536"><path d="M68.175 9.238c0-.435-.383-.769-1.159-.976l-1.657-.588c-1.869-.717-3.024-1.066-3.454-1.066-.067 0-.388.072-.999.249-.611.161-1.533.451-2.807.901-.104.049-.818.197-2.144.445-1.32.254-3.31.652-5.95 1.209L23.833.08C23.783.026 23.6 0 23.26 0c-.935 0-1.735.44-2.403 1.32l16.682 10.227-5.611 1.083-4.867-3.871-1.326.251v3.053l-5.621-2.146-1.069.658 4.956 4.368v.246c0 .767.52 1.155 1.566 1.155l2.491 3.055 1.23-.409.414-2.227H42.74l2.734 2.061v6.607h2.475l5.044-10.9a98.922 98.922 0 0 0 5.354-1.031c1.875-.424 3.874-.849 6.027-1.276.384-.165.787-.378 1.232-.626.445-.244.86-.51 1.248-.779a5.76 5.76 0 0 0 .938-.829c.259-.276.383-.524.383-.752zM58.171 65.555h-.715v-1.843c0-3.335-.196-6.4-.61-9.196-.011-.042-.016-.083-.031-.13V35.827h-1.108v-4.311h-1.471v4.311h-1.113v12.671a12.442 12.442 0 0 0-.812-.486V35.048c0-1.059-5.044-4.336-17.14-4.336-12.106 0-17.01 3.283-17.01 4.336V48.11c-2.351 1.289-3.798 3.428-4.35 6.405-.414 2.785-.608 5.856-.608 9.196v1.843h-.717c-.753 0-1.124 1.015-1.124 3.056 0 1.978.37 2.967 1.124 2.967h4.699v.911c0 1.372.052 2.491.153 3.371s.223 1.595.36 2.144c.611 1.025 1.735 1.533 3.368 1.533 1.559 0 2.657-.508 3.271-1.533.398-.818.611-2.454.611-4.888v-1.538h20.756v1.538c0 2.434.207 4.069.616 4.888.616 1.025 1.709 1.533 3.272 1.533 1.631 0 2.76-.508 3.371-1.533.129-.549.259-1.264.357-2.144s.15-1.999.15-3.371v-.911h4.701c.746 0 1.124-.989 1.124-2.967 0-2.041-.378-3.055-1.124-3.055zM21.88 61.904a3.053 3.053 0 1 1 0-6.105 3.062 3.062 0 0 1 3.055 3.055 3.057 3.057 0 0 1-3.055 3.05zm1.862-13.624a1.926 1.926 0 0 1-1.918-1.921V42.02c0-1.069.769-2.009 1.918-2.54 0 0 4.681-1.605 11.591-1.605 6.897 0 11.606 1.605 11.606 1.605 1.513.754 1.911 2.048 1.911 3.115v3.764a1.914 1.914 0 0 1-1.911 1.921H23.742zm19.619 14.096H27.294a.554.554 0 0 1-.546-.549c0-.301.251-.539.546-.539h16.067c.296 0 .539.238.539.539 0 .3-.243.549-.539.549zm0-3.076H27.294a.545.545 0 0 1-.546-.539c0-.3.251-.549.546-.549h16.067c.296 0 .539.249.539.549a.538.538 0 0 1-.539.539zm0-3.066H27.294a.546.546 0 0 1-.546-.544c0-.295.251-.543.546-.543h16.067c.296 0 .539.248.539.543a.54.54 0 0 1-.539.544zm5.386 5.67a3.05 3.05 0 0 1-3.045-3.05 3.052 3.052 0 0 1 3.045-3.055 3.056 3.056 0 0 1 3.05 3.055 3.055 3.055 0 0 1-3.05 3.05z" fill="#fff"/></svg>