<svg class="svgicon" id="svg34" xmlns="http://www.w3.org/2000/svg" viewBox="0 0 128 128"><rect x="1.92" y="1.92" style="stroke-alignment:inside" rx="62.08" ry="62.08" stroke="#fff" fill="none" stroke-width="3.84"/><g transform="matrix(.5 0 0 .5 32 32)"><style>#svg34 path, #svg34 circle, #svg34 polygon, #svg34 rect { fill: rgb(255, 255, 255) } #svg34 defs &gt; path { fill: none } #svg34 path[fill=&quot;none&quot;], #svg34 circle[fill=&quot;none&quot;], #svg34 polygon[fill=&quot;none&quot;], #svg34 rect[fill=&quot;none&quot;] { fill: none }</style><style>#svg34 .st0{fill:#fff}</style><path class="st0" d="M99.748 86.484c.875 0 1.707-.383 2.277-1.047l24-27.98a3 3 0 0 0-4.554-3.906L98.369 80.484H65v-7.858h34.748c.875 0 1.707-.383 2.277-1.047l24-27.98a2.999 2.999 0 1 0-4.554-3.906L98.369 66.625H65v-5.909h30.748c.875 0 1.707-.383 2.277-1.047l24-27.979c.762-.89.938-2.142.447-3.206a2.997 2.997 0 0 0-2.725-1.747H87.594a2.996 2.996 0 0 0-2.594-4.5H53.709c-.898 0-1.748.401-2.318 1.096l-2.797 3.404H28.252c-.875 0-1.707.382-2.277 1.047l-24 27.979a2.999 2.999 0 0 0 2.278 4.953H27.71v5.833H4.252a3 3 0 1 0 0 6h23.457v7.935H4.252a3 3 0 1 0 0 6h23.457v6.72H4.252a3 3 0 1 0 0 6h23.457v3.56a3 3 0 0 0 3 3H62a3 3 0 0 0 3-3v-3.56h34.748c.875 0 1.707-.383 2.277-1.047l24-27.979a3 3 0 0 0-4.554-3.906L98.369 93.204H65v-6.72h34.748zm-53.074-2.638v3.069h-1.859v-2.98c-1.711-.029-3.482-.561-4.516-1.299l.709-1.977c1.062.707 2.598 1.269 4.25 1.269 2.094 0 3.512-1.21 3.512-2.892 0-1.623-1.152-2.627-3.336-3.512-3.01-1.182-4.869-2.539-4.869-5.105 0-2.449 1.742-4.309 4.457-4.752v-2.98h1.83v2.863c1.77.059 2.98.531 3.836 1.032l-.738 1.948a7.133 7.133 0 0 0-3.719-1.004c-2.271 0-3.127 1.357-3.127 2.538 0 1.534 1.092 2.302 3.658 3.364 3.041 1.239 4.574 2.773 4.574 5.4 0 2.333-1.623 4.517-4.662 5.018z"/></g></svg>