<svg class="svgicon" id="svg34" preserveAspectRatio="xMidYMid meet" xmlns="http://www.w3.org/2000/svg" viewBox="0 0 128 128"><rect x="1.92" y="1.92" style="stroke: rgb(255, 255, 255); fill: none; stroke-alignment: inside; stroke-width: 3.84" rx="62.08" ry="62.08"></rect><g transform="scale(0.5) translate(64, 64)"><style> #svg34 path, #svg34 circle, #svg34 polygon, #svg34 rect { fill: rgb(255, 255, 255) } #svg34 defs &gt; path { fill: none } #svg34 path[fill="none"], #svg34 circle[fill="none"], #svg34 polygon[fill="none"], #svg34 rect[fill="none"] { fill: none } </style><style type="text/css"> #svg34 .st0{fill:rgb(255, 255, 255);} </style><path class="st0" d="M99.748,86.484c0.875,0,1.707-0.383,2.277-1.047l24-27.98c1.078-1.258,0.934-3.151-0.324-4.23 c-1.258-1.078-3.152-0.934-4.23,0.324L98.369,80.484H65v-7.858h34.748c0.875,0,1.707-0.383,2.277-1.047l24-27.98 c1.078-1.257,0.934-3.151-0.324-4.229c-1.258-1.079-3.152-0.935-4.23,0.323L98.369,66.625H65v-5.909h30.748 c0.875,0,1.707-0.383,2.277-1.047l24-27.979c0.762-0.89,0.938-2.142,0.447-3.206c-0.488-1.065-1.553-1.747-2.725-1.747H87.594 c0.488-0.844,0.543-1.883,0.117-2.782c-0.494-1.049-1.551-1.718-2.711-1.718H53.709c-0.898,0-1.748,0.401-2.318,1.096l-2.797,3.404 H28.252c-0.875,0-1.707,0.382-2.277,1.047l-24,27.979c-0.764,0.89-0.938,2.142-0.449,3.206c0.49,1.064,1.555,1.747,2.727,1.747 h23.457v5.833H4.252c-1.658,0-3,1.343-3,3s1.342,3,3,3h23.457v7.935H4.252c-1.658,0-3,1.343-3,3s1.342,3,3,3h23.457v6.72H4.252 c-1.658,0-3,1.343-3,3s1.342,3,3,3h23.457v3.56c0,1.657,1.342,3,3,3H62c1.656,0,3-1.343,3-3v-3.56h34.748 c0.875,0,1.707-0.383,2.277-1.047l24-27.979c1.078-1.258,0.934-3.151-0.324-4.23c-1.258-1.078-3.152-0.934-4.23,0.324 L98.369,93.204H65v-6.72H99.748z M46.674,83.846v3.069h-1.859v-2.98c-1.711-0.029-3.482-0.561-4.516-1.299l0.709-1.977 c1.062,0.707,2.598,1.269,4.25,1.269c2.094,0,3.512-1.21,3.512-2.892c0-1.623-1.152-2.627-3.336-3.512 c-3.01-1.182-4.869-2.539-4.869-5.105c0-2.449,1.742-4.309,4.457-4.752v-2.98h1.83v2.863c1.77,0.059,2.98,0.531,3.836,1.032 l-0.738,1.948c-0.619-0.354-1.83-1.004-3.719-1.004c-2.271,0-3.127,1.357-3.127,2.538c0,1.534,1.092,2.302,3.658,3.364 c3.041,1.239,4.574,2.773,4.574,5.4C51.336,81.161,49.713,83.345,46.674,83.846z"></path></g></svg>