<svg class="svgicon" id="svg31" preserveAspectRatio="xMidYMid meet" xmlns="http://www.w3.org/2000/svg" viewBox="0 0 128 128">
	<rect x="1.92" y="1.92" style="stroke: rgb(255, 255, 255); fill: none; stroke-alignment: inside; stroke-width: 3.84" rx="62.08" ry="62.08"></rect>
	<g transform="scale(0.5) translate(64, 64)">
		<style> #svg31 path, #svg31 circle, #svg31 polygon, #svg31 rect { fill: rgb(255, 255, 255) } #svg31 defs &gt; path { fill: none } #svg31 path[fill="none"], #svg31 circle[fill="none"], #svg31 polygon[fill="none"], #svg31 rect[fill="none"] { fill: none } </style>
		<path d="M32.703,75.826V67.65l-4.159-4.158L7.129,83.636c-2.26,2.692-3.358,4.439-1.859,6.608 c1.498,2.175,16.221-2.171,18.677-0.263c2.459,1.907,2.546,16.741,4.11,17.958c1.564,1.213,4.067-0.449,6.33-3.143L46.732,85.97 h-3.886C37.244,85.97,32.703,81.429,32.703,75.826z"></path>
		<path d="M120.871,83.636L99.435,63.473l-4.177,4.177v8.176c0,5.603-4.542,10.144-10.144,10.144h-3.846l12.345,18.826 c2.263,2.694,4.766,4.356,6.33,3.143c1.564-1.218,1.651-16.051,4.11-17.958c2.456-1.908,17.179,2.438,18.677,0.263 C124.229,88.075,123.131,86.328,120.871,83.636z"></path>
		<path d="M91.354,73.188v-1.634v-5.521l3.903-3.904l1.159-1.159c0.059-0.058,0.108-0.123,0.166-0.183 c3.29-3.479,3.241-8.964-0.166-12.374l-1.159-1.159l-3.903-3.903v-5.521v-1.636c0-4.901-3.975-8.877-8.878-8.877H80.84h-5.521 l-3.903-3.903l-1.158-1.158c-3.467-3.466-9.09-3.466-12.557,0l-1.158,1.158l-3.903,3.903H47.12h-1.636 c-4.903,0-8.877,3.976-8.877,8.877v1.636v5.52l-3.903,3.904l-1.159,1.159c-3.413,3.416-3.457,8.917-0.147,12.395 c0.051,0.053,0.095,0.11,0.147,0.162l1.159,1.159l3.903,3.904v5.521v1.634c0,4.904,3.974,8.878,8.877,8.878h1.635h2.173h3.348 l3.903,3.903l1.158,1.158c3.467,3.466,9.089,3.466,12.557,0l1.159-1.158l3.904-3.903h3.388h2.133h1.635 C87.379,82.066,91.354,78.092,91.354,73.188z M63.979,33.422c11.748,0,21.271,9.523,21.271,21.27c0,0.225-0.01,0.447-0.017,0.67 c-0.252,8.12-5.048,15.092-11.936,18.455c-2.814,1.374-5.976,2.147-9.319,2.147c-3.331,0-6.481-0.767-9.288-2.132 c-6.908-3.358-11.719-10.346-11.966-18.483c-0.007-0.219-0.017-0.436-0.017-0.656C42.708,42.945,52.232,33.422,63.979,33.422z"></path>
		<polygon points="56.413,57.129 55.118,64.671 54.625,67.54 56.321,66.649 63.977,62.625 71.671,66.67 73.326,67.54 72.842,64.72 71.54,57.129 79.105,49.757 68.653,48.237 63.977,38.766 59.302,48.237 48.85,49.757 "></polygon>
	</g>
</svg>