<svg class="svgicon" id="svg31" xmlns="http://www.w3.org/2000/svg" viewBox="0 0 128 128"><rect x="1.92" y="1.92" style="stroke-alignment:inside" rx="62.08" ry="62.08" stroke="#fff" fill="none" stroke-width="3.84"/><g transform="matrix(.5 0 0 .5 32 32)"><style>#svg31 path, #svg31 circle, #svg31 polygon, #svg31 rect { fill: rgb(255, 255, 255) } #svg31 defs &gt; path { fill: none } #svg31 path[fill=&quot;none&quot;], #svg31 circle[fill=&quot;none&quot;], #svg31 polygon[fill=&quot;none&quot;], #svg31 rect[fill=&quot;none&quot;] { fill: none }</style><path d="M32.703 75.826V67.65l-4.159-4.158L7.129 83.636c-2.26 2.692-3.358 4.439-1.859 6.608 1.498 2.175 16.221-2.171 18.677-.263 2.459 1.907 2.546 16.741 4.11 17.958 1.564 1.213 4.067-.449 6.33-3.143L46.732 85.97h-3.886c-5.602 0-10.143-4.541-10.143-10.144zm88.168 7.81L99.435 63.473l-4.177 4.177v8.176c0 5.603-4.542 10.144-10.144 10.144h-3.846l12.345 18.826c2.263 2.694 4.766 4.356 6.33 3.143 1.564-1.218 1.651-16.051 4.11-17.958 2.456-1.908 17.179 2.438 18.677.263 1.499-2.169.401-3.916-1.859-6.608z"/><path d="M91.354 73.188v-7.155l3.903-3.904 1.159-1.159c.059-.058.108-.123.166-.183 3.29-3.479 3.241-8.964-.166-12.374l-1.159-1.159-3.903-3.903v-7.157a8.879 8.879 0 0 0-8.878-8.877h-7.157l-3.903-3.903-1.158-1.158a8.882 8.882 0 0 0-12.557 0l-1.158 1.158-3.903 3.903h-7.156a8.878 8.878 0 0 0-8.877 8.877v7.156l-3.903 3.904-1.159 1.159c-3.413 3.416-3.457 8.917-.147 12.395.051.053.095.11.147.162l1.159 1.159 3.903 3.904v7.155a8.877 8.877 0 0 0 8.877 8.878h7.156l3.903 3.903 1.158 1.158a8.882 8.882 0 0 0 12.557 0l1.159-1.158 3.904-3.903h7.156a8.877 8.877 0 0 0 8.877-8.878zM63.979 33.422c11.748 0 21.271 9.523 21.271 21.27 0 .225-.01.447-.017.67-.252 8.12-5.048 15.092-11.936 18.455a21.18 21.18 0 0 1-9.319 2.147c-3.331 0-6.481-.767-9.288-2.132-6.908-3.358-11.719-10.346-11.966-18.483-.007-.219-.017-.436-.017-.656.001-11.748 9.525-21.271 21.272-21.271z"/><path d="M56.413 57.129l-1.295 7.542-.493 2.869 1.696-.891 7.656-4.024 7.694 4.045 1.655.87-.484-2.82-1.302-7.591 7.565-7.372-10.452-1.52-4.676-9.471-4.675 9.471-10.452 1.52z"/></g></svg>