<svg class="svgicon" id="svg46" xmlns="http://www.w3.org/2000/svg" viewBox="0 0 128 128"><rect x="1.92" y="1.92" style="stroke-alignment:inside" rx="62.08" ry="62.08" stroke="#fff" fill="none" stroke-width="3.84"/><g transform="matrix(.5 0 0 .5 32 32)"><style>#svg46 path, #svg46 circle, #svg46 polygon, #svg46 rect { fill: rgb(255, 255, 255) } #svg46 defs &gt; path { fill: none } #svg46 path[fill=&quot;none&quot;], #svg46 circle[fill=&quot;none&quot;], #svg46 polygon[fill=&quot;none&quot;], #svg46 rect[fill=&quot;none&quot;] { fill: none }</style><style>#svg46 .st0{fill:#fff}</style><path class="st0" d="M120.719 69.203h-.844V59.146a3.01 3.01 0 0 0-.572-1.764l-14.002-19.255a3.005 3.005 0 0 0-2.428-1.236H74.889a3 3 0 0 0-3 3v45.422c0 1.658 1.342 3 3 3h13.176c-.008-.166-.025-.332-.025-.502 0-2.754 1.074-5.348 3.023-7.303a10.267 10.267 0 0 1 7.305-3.023c2.76 0 5.354 1.072 7.305 3.021a10.273 10.273 0 0 1 3.021 7.305c0 .17-.016.336-.023.502h12.049a3 3 0 0 0 3-3v-13.11a3.001 3.001 0 0 0-3.001-3zm-37.11-20.592h14.836l7.418 10.2H83.609v-10.2zM65.115 33.86H9.91a2 2 0 0 0-2 2v36.013H6.281a2 2 0 0 0-2 2V85.24a2 2 0 0 0 2 2h3.084c.172.049.355.074.545.074h5.686a10.267 10.267 0 0 1 2.998-6.805 10.267 10.267 0 0 1 7.305-3.023c2.76 0 5.354 1.072 7.305 3.021a10.257 10.257 0 0 1 2.998 6.807h28.914a2 2 0 0 0 2-2V35.86a2.002 2.002 0 0 0-2.001-2z"/><path class="st0" d="M104.693 87.812a6.291 6.291 0 0 0-1.852-4.477 6.295 6.295 0 0 0-4.475-1.85 6.295 6.295 0 0 0-4.475 1.852 6.304 6.304 0 0 0-1.854 4.475c0 1.689.658 3.279 1.855 4.477a6.287 6.287 0 0 0 4.473 1.852 6.29 6.29 0 0 0 4.477-1.854 6.273 6.273 0 0 0 1.851-4.475zm-74.32-4.476a6.295 6.295 0 0 0-4.475-1.85 6.295 6.295 0 0 0-4.475 1.852 6.304 6.304 0 0 0-1.854 4.475c0 1.689.658 3.279 1.855 4.477a6.287 6.287 0 0 0 4.473 1.852 6.29 6.29 0 0 0 4.477-1.854 6.289 6.289 0 0 0 1.852-4.475 6.292 6.292 0 0 0-1.853-4.477z"/></g></svg>