<svg class="svgicon" id="svg46" preserveAspectRatio="xMidYMid meet" xmlns="http://www.w3.org/2000/svg" viewBox="0 0 128 128"><rect x="1.92" y="1.92" style="stroke: rgb(255, 255, 255); fill: none; stroke-alignment: inside; stroke-width: 3.84" rx="62.08" ry="62.08"></rect><g transform="scale(0.5) translate(64, 64)"><style> #svg46 path, #svg46 circle, #svg46 polygon, #svg46 rect { fill: rgb(255, 255, 255) } #svg46 defs &gt; path { fill: none } #svg46 path[fill="none"], #svg46 circle[fill="none"], #svg46 polygon[fill="none"], #svg46 rect[fill="none"] { fill: none } </style><style type="text/css"> #svg46 .st0{fill:rgb(255, 255, 255);} </style><path class="st0" d="M120.719,69.203h-0.844V59.146c0-0.633-0.201-1.252-0.572-1.764l-14.002-19.255 c-0.566-0.776-1.467-1.236-2.428-1.236H74.889c-1.658,0-3,1.343-3,3v45.422c0,1.658,1.342,3,3,3h13.176 c-0.008-0.166-0.025-0.332-0.025-0.502c0-2.754,1.074-5.348,3.023-7.303c1.953-1.951,4.547-3.023,7.305-3.023 c2.76,0,5.354,1.072,7.305,3.021c1.949,1.953,3.021,4.547,3.021,7.305c0,0.17-0.016,0.336-0.023,0.502h12.049c1.656,0,3-1.342,3-3 V72.203C123.719,70.545,122.375,69.203,120.719,69.203z M83.609,48.611h14.836l7.418,10.2H83.609V48.611z"></path><path class="st0" d="M65.115,33.86H9.91c-1.105,0-2,0.896-2,2v36.013H6.281c-1.105,0-2,0.896-2,2V85.24c0,1.104,0.895,2,2,2h3.084 c0.172,0.049,0.355,0.074,0.545,0.074h5.686c0.121-2.566,1.168-4.969,2.998-6.805c1.953-1.951,4.547-3.023,7.305-3.023 c2.76,0,5.354,1.072,7.305,3.021c1.832,1.836,2.877,4.238,2.998,6.807h28.914c1.104,0,2-0.895,2-2V35.86 C67.115,34.756,66.219,33.86,65.115,33.86z"></path><path class="st0" d="M104.693,87.812c0-1.691-0.656-3.279-1.852-4.477c-1.193-1.191-2.783-1.85-4.475-1.85 c-1.689,0-3.279,0.658-4.475,1.852c-1.193,1.197-1.854,2.787-1.854,4.475c0,1.689,0.658,3.279,1.855,4.477 c1.193,1.193,2.783,1.852,4.473,1.852c1.691,0,3.281-0.658,4.477-1.854C104.037,91.096,104.693,89.506,104.693,87.812z"></path><path class="st0" d="M30.373,83.336c-1.193-1.191-2.783-1.85-4.475-1.85c-1.689,0-3.279,0.658-4.475,1.852 c-1.193,1.197-1.854,2.787-1.854,4.475c0,1.689,0.658,3.279,1.855,4.477c1.193,1.193,2.783,1.852,4.473,1.852 c1.691,0,3.281-0.658,4.477-1.854c1.193-1.193,1.852-2.783,1.852-4.475C32.227,86.123,31.568,84.533,30.373,83.336z"></path></g></svg>