<svg class="svgicon" id="svg37" xmlns="http://www.w3.org/2000/svg" viewBox="0 0 128 128"><rect x="1.92" y="1.92" style="stroke-alignment:inside" rx="62.08" ry="62.08" stroke="#fff" fill="none" stroke-width="3.84"/><g transform="matrix(.5 0 0 .5 32 32)"><style>#svg37 path, #svg37 circle, #svg37 polygon, #svg37 rect { fill: rgb(255, 255, 255) } #svg37 defs &gt; path { fill: none } #svg37 path[fill=&quot;none&quot;], #svg37 circle[fill=&quot;none&quot;], #svg37 polygon[fill=&quot;none&quot;], #svg37 rect[fill=&quot;none&quot;] { fill: none }</style><style>#svg37 .st0{fill:#fff}</style><path class="st0" d="M21.779 96.062h38.317v9.166H21.779zM9.527 22.334h38.317v9.168H9.527zm11.532 45.928h.094a1.49 1.49 0 0 1 .568-.113h37.656v-9.055h-2.679a1.491 1.491 0 0 1-.626.141H21.059v9.027zm39.818 3H23.221v9.053h38.317v-9.166h-.093a1.487 1.487 0 0 1-.568.113zM16.254 56.234h2.679c.191-.088.402-.141.626-.141h35.014v-9.025H16.254v9.166zm0 27.379h38.318v9.166H16.254zm6.967-48.92h38.317v9.166H23.221zm56.933 37.073h38.317v9.166H80.154zm-.241 24.732h38.318v9.168H79.913zm-5.524-12.375h38.318v9.166H74.389z"/></g></svg>