<svg class="svgicon" id="svg40" xmlns="http://www.w3.org/2000/svg" viewBox="0 0 128 128"><rect x="1.92" y="1.92" style="stroke-alignment:inside" rx="62.08" ry="62.08" stroke="#fff" fill="none" stroke-width="3.84"/><g transform="matrix(.5 0 0 .5 32 32)"><style>#svg40 path, #svg40 circle, #svg40 polygon, #svg40 rect { fill: rgb(255, 255, 255) } #svg40 defs &gt; path { fill: none } #svg40 path[fill=&quot;none&quot;], #svg40 circle[fill=&quot;none&quot;], #svg40 polygon[fill=&quot;none&quot;], #svg40 rect[fill=&quot;none&quot;] { fill: none }</style><style>#svg40 .st0{fill:#fff}</style><path class="st0" d="M119.761 77.737c-.47-2.393-3.315-13.272-16.585-16.194-.982-.213-2.33-.686-3.971-1.389l-1.883-.836a101.57 101.57 0 0 1-3.224-1.589L73.395 78.301a2.778 2.778 0 0 1-1.967.812 2.791 2.791 0 0 1-1.968-4.773l19.49-19.369a300.317 300.317 0 0 1-3.639-2.068l-23.99 23.841a2.785 2.785 0 0 1-1.968.812 2.792 2.792 0 0 1-1.968-4.773l22.953-22.81c-.616-.368-1.225-.731-1.859-1.117l-1.723-1.05-.65-.4-27.83 27.656a2.787 2.787 0 0 1-1.969.812 2.791 2.791 0 0 1-1.968-4.774L71.23 44.377a869.117 869.117 0 0 1-4.277-2.703c-.662-.419-1.18-.749-1.535-.971-4.892-3.042-9.815-2.935-13.463.289-.592.529-1.158 1.155-1.814 1.88-2.631 2.911-6.234 6.896-13.917 6.896-5.387 0-8.845-2.88-11.896-5.421-2.503-2.085-4.868-4.054-7.901-4.054l-.117.002-.244.011c-8.051.42-8.051 11.194-8.051 16.983v21.285c0 .044.012.086.013.131-.001.042-.013.083-.013.128v3.938a6.74 6.74 0 0 0 6.733 6.732h98.504c3.711 0 6.731-3.021 6.731-6.732v-3.938c0-.39-.08-.76-.222-1.096zm-5.364 5.034c0 .632-.515 1.146-1.146 1.146H14.748a1.147 1.147 0 0 1-1.146-1.146v-1.146h100.796v1.146z"/></g></svg>