<svg class="svgicon" id="svg40" preserveAspectRatio="xMidYMid meet" xmlns="http://www.w3.org/2000/svg" viewBox="0 0 128 128"><rect x="1.92" y="1.92" style="stroke: rgb(255, 255, 255); fill: none; stroke-alignment: inside; stroke-width: 3.84" rx="62.08" ry="62.08"></rect><g transform="scale(0.5) translate(64, 64)"><style> #svg40 path, #svg40 circle, #svg40 polygon, #svg40 rect { fill: rgb(255, 255, 255) } #svg40 defs &gt; path { fill: none } #svg40 path[fill="none"], #svg40 circle[fill="none"], #svg40 polygon[fill="none"], #svg40 rect[fill="none"] { fill: none } </style><style type="text/css"> #svg40 .st0{fill:rgb(255, 255, 255);} </style><path class="st0" d="M119.761,77.737c-0.47-2.393-3.315-13.272-16.585-16.194c-0.982-0.213-2.33-0.686-3.971-1.389l-1.883-0.836 c-0.986-0.461-2.072-0.999-3.224-1.589L73.395,78.301c-0.544,0.542-1.256,0.812-1.967,0.812c-0.719,0-1.437-0.274-1.982-0.824 c-1.087-1.094-1.081-2.862,0.014-3.949L88.95,54.971c-1.152-0.643-2.375-1.339-3.639-2.068l-23.99,23.841 c-0.544,0.541-1.257,0.812-1.968,0.812c-0.718,0-1.436-0.274-1.981-0.824c-1.087-1.094-1.081-2.862,0.013-3.949l22.953-22.81 c-0.616-0.368-1.225-0.731-1.859-1.117l-1.723-1.05c-0.221-0.135-0.434-0.267-0.65-0.4l-27.83,27.656 c-0.545,0.541-1.257,0.812-1.969,0.812c-0.718,0-1.436-0.274-1.981-0.825c-1.087-1.094-1.082-2.861,0.013-3.949l26.891-26.723 c-1.726-1.083-3.191-2.013-4.277-2.703c-0.662-0.419-1.18-0.749-1.535-0.971c-4.892-3.042-9.815-2.935-13.463,0.289 c-0.592,0.529-1.158,1.155-1.814,1.88c-2.631,2.911-6.234,6.896-13.917,6.896c-5.387,0-8.845-2.88-11.896-5.421 c-2.503-2.085-4.868-4.054-7.901-4.054c-0.039,0-0.079,0.001-0.117,0.002l-0.244,0.011C8.015,40.726,8.015,51.5,8.015,57.289v21.285 c0,0.044,0.012,0.086,0.013,0.131c-0.001,0.042-0.013,0.083-0.013,0.128v3.938c0,3.712,3.021,6.732,6.733,6.732h98.504 c3.711,0,6.731-3.021,6.731-6.732v-3.938C119.983,78.443,119.903,78.073,119.761,77.737z M114.397,82.771 c0,0.632-0.515,1.146-1.146,1.146H14.748c-0.633,0-1.146-0.515-1.146-1.146v-1.146h100.796V82.771z"></path></g></svg>