<svg class="svgicon" id="svg155" xmlns="http://www.w3.org/2000/svg" viewBox="0 0 60 60"><style>#svg155 path, #svg155 circle, #svg155 polygon, #svg155 rect { fill: rgb(0, 0, 0) } #svg155 defs &gt; path { fill: none } #svg155 path[fill=&quot;none&quot;], #svg155 circle[fill=&quot;none&quot;], #svg155 polygon[fill=&quot;none&quot;], #svg155 rect[fill=&quot;none&quot;] { fill: none }</style><path d="M21.292 35.207l-4.251-5.198 4.354-5.146 11.094-11.979a1.673 1.673 0 0 0-1.228-2.807H17.838c-.476 0-.931.202-1.248.56L.424 28.771a1.672 1.672 0 0 0-.007 2.216l16.167 18.369c.317.36.773.567 1.254.567h13.423a1.675 1.675 0 0 0 1.22-2.818L21.292 35.207zm-2.697 11.371L3.906 29.89l14.683-16.469h8.846l-8.518 9.197c-.018.017-.033.036-.05.056l-5.278 6.236a1.674 1.674 0 0 0-.019 2.139l5.17 6.32c.023.029.05.06.076.087l8.577 9.122h-8.798z"/><path d="M59.547 47.105l-11.19-11.898-4.251-5.198 4.354-5.146 11.094-11.979a1.67 1.67 0 1 0-1.225-2.807H44.905a1.67 1.67 0 0 0-1.25.56L27.489 28.771a1.67 1.67 0 0 0-.005 2.216L43.65 49.355c.315.36.772.567 1.255.567h13.424a1.674 1.674 0 0 0 1.218-2.817zm-13.888-.527L30.974 29.89l14.68-16.469h8.848l-8.52 9.197c-.017.017-.033.036-.05.056l-5.277 6.236a1.673 1.673 0 0 0-.017 2.139l5.168 6.32c.024.029.051.06.076.087l8.578 9.122h-8.801z"/></svg>