<svg class="svgicon" id="svg155" preserveAspectRatio="xMidYMid meet" xmlns="http://www.w3.org/2000/svg" viewBox="0 0 60 60"><style> #svg155 path, #svg155 circle, #svg155 polygon, #svg155 rect { fill: rgb(0, 0, 0) } #svg155 defs &gt; path { fill: none } #svg155 path[fill="none"], #svg155 circle[fill="none"], #svg155 polygon[fill="none"], #svg155 rect[fill="none"] { fill: none } </style><path fill="rgb(0, 0, 0)" d="M21.292,35.207l-4.251-5.198l4.354-5.146l11.094-11.979c0.451-0.487,0.57-1.196,0.304-1.806 c-0.265-0.608-0.867-1.001-1.532-1.001H17.838c-0.476,0-0.931,0.202-1.248,0.56L0.424,28.771c-0.562,0.63-0.565,1.582-0.007,2.216 l16.167,18.369c0.317,0.36,0.773,0.567,1.254,0.567h13.423c0.668,0,1.27-0.397,1.536-1.009c0.266-0.613,0.14-1.323-0.316-1.809 L21.292,35.207z M18.595,46.578L3.906,29.89l14.683-16.469h8.846l-8.518,9.197c-0.018,0.017-0.033,0.036-0.05,0.056l-5.278,6.236 c-0.52,0.614-0.529,1.514-0.019,2.139l5.17,6.32c0.023,0.029,0.05,0.06,0.076,0.087l8.577,9.122H18.595z"></path><path fill="rgb(0, 0, 0)" d="M59.547,47.105L48.357,35.207l-4.251-5.198l4.354-5.146l11.094-11.979c0.451-0.487,0.571-1.196,0.305-1.806 c-0.266-0.608-0.867-1.001-1.53-1.001H44.905c-0.478,0-0.931,0.202-1.25,0.56L27.489,28.771c-0.562,0.63-0.564,1.582-0.005,2.216 L43.65,49.355c0.315,0.36,0.772,0.567,1.255,0.567h13.424c0.664,0,1.27-0.397,1.534-1.009 C60.128,48.301,60.002,47.591,59.547,47.105z M45.659,46.578L30.974,29.89l14.68-16.469h8.848l-8.52,9.197 c-0.017,0.017-0.033,0.036-0.05,0.056l-5.277,6.236c-0.521,0.614-0.527,1.514-0.017,2.139l5.168,6.32 c0.024,0.029,0.051,0.06,0.076,0.087l8.578,9.122H45.659z"></path></svg>